<?xml version="1.0" encoding="UTF-8"?>
<svg width="24" height="24" viewBox="0 0 24 24" fill="none" xmlns="http://www.w3.org/2000/svg">
    <path d="M20 4H4c-1.11 0-1.99.89-1.99 2L2 18c0 1.11.89 2 2 2h16c1.11 0 2-.89 2-2V6c0-1.11-.89-2-2-2zm-1 14H5c-.55 0-1-.45-1-1V7c0-.55.45-1 1-1h14c.55 0 1 .45 1 1v10c0 .55-.45 1-1 1z" fill="currentColor"/>
    <circle cx="9" cy="11" r="2" fill="currentColor"/>
    <path d="M9 13c-1.66 0-3 .67-3 1.5V16h6v-1.5c0-.83-1.34-1.5-3-1.5zM15 9h3v2h-3zM15 12h3v2h-3z" fill="currentColor"/>
</svg>
